<svg viewBox="0 0 2079 2079" width="2079" height="2079" xmlns="http://www.w3.org/2000/svg" xmlns:xlink="http://www.w3.org/1999/xlink" xml:space="preserve" overflow="hidden"><defs><clipPath id="clip0"><rect x="1075" y="140" width="2079" height="2079"/></clipPath></defs><g clip-path="url(#clip0)" transform="translate(-1075 -140)"><path d="M1075 486.507C1075 295.136 1230.14 140 1421.51 140L2807.49 140C2998.86 140 3154 295.136 3154 486.507L3154 1872.49C3154 2063.86 2998.86 2219 2807.49 2219L1421.51 2219C1230.14 2219 1075 2063.86 1075 1872.49Z" fill="#263D36" fill-rule="evenodd"/><rect x="1920" y="400" width="390" height="389" fill="#FFFFFF"/><rect x="1920" y="984" width="390" height="390" fill="#FFFFFF"/><rect x="1920" y="1569" width="390" height="390" fill="#FFFFFF"/><rect x="1335" y="400" width="390" height="389" fill="#8ED973"/><rect x="2504" y="400" width="390" height="389" fill="#FFFFFF"/></g></svg>